<?xml version="1.0" encoding="UTF-8" standalone="no"?>
<!DOCTYPE svg PUBLIC "-//W3C//DTD SVG 1.1//EN"
 "http://www.w3.org/Graphics/SVG/1.1/DTD/svg11.dtd">
<!-- Generated by graphviz version 2.43.0 (0)
 -->
<!-- Title: G Pages: 1 -->
<svg width="465pt" height="979pt"
 viewBox="0.00 0.00 464.50 979.00" xmlns="http://www.w3.org/2000/svg" xmlns:xlink="http://www.w3.org/1999/xlink">
<g id="graph0" class="graph" transform="scale(1 1) rotate(0) translate(4 975)">
<title>G</title>
<polygon fill="#eeeeee" stroke="transparent" points="-4,4 -4,-975 460.5,-975 460.5,4 -4,4"/>
<g id="clust1" class="cluster">
<title>cluster_inputs</title>
<polygon fill="#eeeeee" stroke="black" stroke-dasharray="5,2" points="16,-887 16,-963 377,-963 377,-887 16,-887"/>
<text text-anchor="middle" x="310.5" y="-894.8" font-family="Times,serif" font-size="14.00">Workflow Inputs</text>
</g>
<g id="clust2" class="cluster">
<title>cluster_outputs</title>
<polygon fill="#eeeeee" stroke="black" stroke-dasharray="5,2" points="126,-8 126,-84 271,-84 271,-8 126,-8"/>
<text text-anchor="middle" x="198.5" y="-15.8" font-family="Times,serif" font-size="14.00">Workflow Outputs</text>
</g>
<!-- map_soil_data -->
<g id="node1" class="node">
<title>map_soil_data</title>
<polygon fill="lightgoldenrodyellow" stroke="black" points="32.5,-477.5 32.5,-513.5 149.5,-513.5 149.5,-477.5 32.5,-477.5"/>
<text text-anchor="middle" x="91" y="-491.8" font-family="Times,serif" font-size="14.00">map_soil_data</text>
</g>
<!-- estimate_phenology -->
<g id="node2" class="node">
<title>estimate_phenology</title>
<polygon fill="lightgoldenrodyellow" stroke="black" points="11.5,-404.5 11.5,-440.5 170.5,-440.5 170.5,-404.5 11.5,-404.5"/>
<text text-anchor="middle" x="91" y="-418.8" font-family="Times,serif" font-size="14.00">estimate_phenology</text>
</g>
<!-- map_soil_data&#45;&gt;estimate_phenology -->
<g id="edge1" class="edge">
<title>map_soil_data&#45;&gt;estimate_phenology</title>
<path fill="none" stroke="black" d="M91,-477.31C91,-469.29 91,-459.55 91,-450.57"/>
<polygon fill="black" stroke="black" points="94.5,-450.53 91,-440.53 87.5,-450.53 94.5,-450.53"/>
</g>
<!-- icasa2dssat -->
<g id="node3" class="node">
<title>icasa2dssat</title>
<polygon fill="lightgoldenrodyellow" stroke="black" points="56,-331.5 56,-367.5 156,-367.5 156,-331.5 56,-331.5"/>
<text text-anchor="middle" x="106" y="-345.8" font-family="Times,serif" font-size="14.00">icasa2dssat</text>
</g>
<!-- estimate_phenology&#45;&gt;icasa2dssat -->
<g id="edge5" class="edge">
<title>estimate_phenology&#45;&gt;icasa2dssat</title>
<path fill="none" stroke="black" d="M94.63,-404.31C96.33,-396.29 98.38,-386.55 100.28,-377.57"/>
<polygon fill="black" stroke="black" points="103.76,-378.04 102.4,-367.53 96.91,-376.59 103.76,-378.04"/>
</g>
<!-- format_dssat -->
<g id="node4" class="node">
<title>format_dssat</title>
<polygon fill="lightgoldenrodyellow" stroke="black" points="143,-258.5 143,-294.5 253,-294.5 253,-258.5 143,-258.5"/>
<text text-anchor="middle" x="198" y="-272.8" font-family="Times,serif" font-size="14.00">format_dssat</text>
</g>
<!-- icasa2dssat&#45;&gt;format_dssat -->
<g id="edge2" class="edge">
<title>icasa2dssat&#45;&gt;format_dssat</title>
<path fill="none" stroke="black" d="M128.27,-331.31C140.14,-322.16 154.9,-310.76 167.79,-300.82"/>
<polygon fill="black" stroke="black" points="170.16,-303.41 175.93,-294.53 165.88,-297.87 170.16,-303.41"/>
</g>
<!-- plot_results -->
<g id="node11" class="node">
<title>plot_results</title>
<polygon fill="lightgoldenrodyellow" stroke="black" points="147.5,-112.5 147.5,-148.5 248.5,-148.5 248.5,-112.5 147.5,-112.5"/>
<text text-anchor="middle" x="198" y="-126.8" font-family="Times,serif" font-size="14.00">plot_results</text>
</g>
<!-- format_dssat&#45;&gt;plot_results -->
<g id="edge12" class="edge">
<title>format_dssat&#45;&gt;plot_results</title>
<path fill="none" stroke="black" d="M190.52,-258.03C186.53,-247.75 182.03,-234.38 180,-222 177.34,-205.77 177.34,-201.23 180,-185 181.44,-176.2 184.13,-166.9 187,-158.56"/>
<polygon fill="black" stroke="black" points="190.36,-159.56 190.52,-148.97 183.79,-157.15 190.36,-159.56"/>
</g>
<!-- simulation -->
<g id="node12" class="node">
<title>simulation</title>
<polygon fill="lightgoldenrodyellow" stroke="black" points="189,-185.5 189,-221.5 281,-221.5 281,-185.5 189,-185.5"/>
<text text-anchor="middle" x="235" y="-199.8" font-family="Times,serif" font-size="14.00">simulation</text>
</g>
<!-- format_dssat&#45;&gt;simulation -->
<g id="edge16" class="edge">
<title>format_dssat&#45;&gt;simulation</title>
<path fill="none" stroke="black" d="M201.08,-258.31C204.57,-249.94 209.69,-239.7 214.98,-230.4"/>
<polygon fill="black" stroke="black" points="218.15,-231.91 220.26,-221.53 212.14,-228.33 218.15,-231.91"/>
</g>
<!-- format_dssat&#45;&gt;simulation -->
<g id="edge17" class="edge">
<title>format_dssat&#45;&gt;simulation</title>
<path fill="none" stroke="black" d="M212.83,-258.31C218.02,-250.03 223.51,-239.91 227.89,-230.69"/>
<polygon fill="black" stroke="black" points="231.1,-232.09 231.99,-221.53 224.71,-229.23 231.1,-232.09"/>
</g>
<!-- map_weather -->
<g id="node5" class="node">
<title>map_weather</title>
<polygon fill="lightgoldenrodyellow" stroke="black" points="115.5,-550.5 115.5,-586.5 228.5,-586.5 228.5,-550.5 115.5,-550.5"/>
<text text-anchor="middle" x="172" y="-564.8" font-family="Times,serif" font-size="14.00">map_weather</text>
</g>
<!-- map_weather&#45;&gt;map_soil_data -->
<g id="edge9" class="edge">
<title>map_weather&#45;&gt;map_soil_data</title>
<path fill="none" stroke="black" d="M152.39,-550.31C142.14,-541.33 129.44,-530.19 118.25,-520.39"/>
<polygon fill="black" stroke="black" points="120.25,-517.49 110.43,-513.53 115.64,-522.75 120.25,-517.49"/>
</g>
<!-- map_weather&#45;&gt;format_dssat -->
<g id="edge3" class="edge">
<title>map_weather&#45;&gt;format_dssat</title>
<path fill="none" stroke="black" d="M173.55,-550.23C177.9,-501.67 190.27,-363.67 195.56,-304.73"/>
<polygon fill="black" stroke="black" points="199.05,-304.95 196.46,-294.68 192.08,-304.33 199.05,-304.95"/>
</g>
<!-- transform_data -->
<g id="node6" class="node">
<title>transform_data</title>
<polygon fill="lightgoldenrodyellow" stroke="black" points="149,-696.5 149,-732.5 275,-732.5 275,-696.5 149,-696.5"/>
<text text-anchor="middle" x="212" y="-710.8" font-family="Times,serif" font-size="14.00">transform_data</text>
</g>
<!-- get_weather -->
<g id="node7" class="node">
<title>get_weather</title>
<polygon fill="lightgoldenrodyellow" stroke="black" points="173.5,-623.5 173.5,-659.5 278.5,-659.5 278.5,-623.5 173.5,-623.5"/>
<text text-anchor="middle" x="226" y="-637.8" font-family="Times,serif" font-size="14.00">get_weather</text>
</g>
<!-- transform_data&#45;&gt;get_weather -->
<g id="edge4" class="edge">
<title>transform_data&#45;&gt;get_weather</title>
<path fill="none" stroke="black" d="M215.39,-696.31C216.97,-688.29 218.89,-678.55 220.66,-669.57"/>
<polygon fill="black" stroke="black" points="224.14,-670.02 222.64,-659.53 217.27,-668.66 224.14,-670.02"/>
</g>
<!-- map_icasa -->
<g id="node8" class="node">
<title>map_icasa</title>
<polygon fill="lightgoldenrodyellow" stroke="black" points="65,-623.5 65,-659.5 155,-659.5 155,-623.5 65,-623.5"/>
<text text-anchor="middle" x="110" y="-637.8" font-family="Times,serif" font-size="14.00">map_icasa</text>
</g>
<!-- transform_data&#45;&gt;map_icasa -->
<g id="edge6" class="edge">
<title>transform_data&#45;&gt;map_icasa</title>
<path fill="none" stroke="black" d="M187.57,-696.49C174.17,-687.17 157.37,-675.47 142.84,-665.36"/>
<polygon fill="black" stroke="black" points="144.79,-662.45 134.59,-659.61 140.79,-668.2 144.79,-662.45"/>
</g>
<!-- get_weather&#45;&gt;map_weather -->
<g id="edge10" class="edge">
<title>get_weather&#45;&gt;map_weather</title>
<path fill="none" stroke="black" d="M212.93,-623.31C206.36,-614.68 198.28,-604.06 191.04,-594.53"/>
<polygon fill="black" stroke="black" points="193.79,-592.37 184.95,-586.53 188.22,-596.61 193.79,-592.37"/>
</g>
<!-- map_icasa&#45;&gt;map_weather -->
<g id="edge11" class="edge">
<title>map_icasa&#45;&gt;map_weather</title>
<path fill="none" stroke="black" d="M125.01,-623.31C132.62,-614.59 142.01,-603.84 150.39,-594.25"/>
<polygon fill="black" stroke="black" points="153.19,-596.36 157.13,-586.53 147.92,-591.76 153.19,-596.36"/>
</g>
<!-- reshape_data -->
<g id="node9" class="node">
<title>reshape_data</title>
<polygon fill="lightgoldenrodyellow" stroke="black" points="156,-769.5 156,-805.5 268,-805.5 268,-769.5 156,-769.5"/>
<text text-anchor="middle" x="212" y="-783.8" font-family="Times,serif" font-size="14.00">reshape_data</text>
</g>
<!-- reshape_data&#45;&gt;transform_data -->
<g id="edge18" class="edge">
<title>reshape_data&#45;&gt;transform_data</title>
<path fill="none" stroke="black" d="M212,-769.31C212,-761.29 212,-751.55 212,-742.57"/>
<polygon fill="black" stroke="black" points="215.5,-742.53 212,-732.53 208.5,-742.53 215.5,-742.53"/>
</g>
<!-- reshape_data&#45;&gt;map_icasa -->
<g id="edge7" class="edge">
<title>reshape_data&#45;&gt;map_icasa</title>
<path fill="none" stroke="black" d="M180.81,-769.37C166.63,-760.21 150.67,-747.77 140,-733 126.34,-714.1 118.63,-688.59 114.45,-669.47"/>
<polygon fill="black" stroke="black" points="117.87,-668.71 112.48,-659.59 111.01,-670.08 117.87,-668.71"/>
</g>
<!-- get_soil_data -->
<g id="node10" class="node">
<title>get_soil_data</title>
<polygon fill="lightgoldenrodyellow" stroke="black" points="0,-842.5 0,-878.5 110,-878.5 110,-842.5 0,-842.5"/>
<text text-anchor="middle" x="55" y="-856.8" font-family="Times,serif" font-size="14.00">get_soil_data</text>
</g>
<!-- get_soil_data&#45;&gt;map_soil_data -->
<g id="edge8" class="edge">
<title>get_soil_data&#45;&gt;map_soil_data</title>
<path fill="none" stroke="black" d="M51.44,-842.3C46.2,-815.38 37,-761.61 37,-715.5 37,-715.5 37,-715.5 37,-640.5 37,-597.08 58.79,-550.72 74.69,-522.67"/>
<polygon fill="black" stroke="black" points="77.79,-524.29 79.81,-513.89 71.75,-520.76 77.79,-524.29"/>
</g>
<!-- plot -->
<g id="node19" class="node">
<title>plot</title>
<polygon fill="#94ddf4" stroke="black" points="171,-39.5 171,-75.5 225,-75.5 225,-39.5 171,-39.5"/>
<text text-anchor="middle" x="198" y="-53.8" font-family="Times,serif" font-size="14.00">plot</text>
</g>
<!-- plot_results&#45;&gt;plot -->
<g id="edge24" class="edge">
<title>plot_results&#45;&gt;plot</title>
<path fill="none" stroke="black" d="M198,-112.31C198,-104.29 198,-94.55 198,-85.57"/>
<polygon fill="black" stroke="black" points="201.5,-85.53 198,-75.53 194.5,-85.53 201.5,-85.53"/>
</g>
<!-- simulation&#45;&gt;plot_results -->
<g id="edge13" class="edge">
<title>simulation&#45;&gt;plot_results</title>
<path fill="none" stroke="black" d="M226.04,-185.31C221.68,-176.94 216.34,-166.7 211.5,-157.4"/>
<polygon fill="black" stroke="black" points="214.6,-155.78 206.87,-148.53 208.39,-159.01 214.6,-155.78"/>
</g>
<!-- load_metadata -->
<g id="node13" class="node">
<title>load_metadata</title>
<polygon fill="lightgoldenrodyellow" stroke="black" points="335.5,-842.5 335.5,-878.5 456.5,-878.5 456.5,-842.5 335.5,-842.5"/>
<text text-anchor="middle" x="396" y="-856.8" font-family="Times,serif" font-size="14.00">load_metadata</text>
</g>
<!-- load_metadata&#45;&gt;reshape_data -->
<g id="edge14" class="edge">
<title>load_metadata&#45;&gt;reshape_data</title>
<path fill="none" stroke="black" d="M351.93,-842.49C326.06,-832.51 293.18,-819.82 265.79,-809.26"/>
<polygon fill="black" stroke="black" points="266.94,-805.95 256.35,-805.61 264.42,-812.48 266.94,-805.95"/>
</g>
<!-- preprocess_data -->
<g id="node14" class="node">
<title>preprocess_data</title>
<polygon fill="lightgoldenrodyellow" stroke="black" points="145,-842.5 145,-878.5 279,-878.5 279,-842.5 145,-842.5"/>
<text text-anchor="middle" x="212" y="-856.8" font-family="Times,serif" font-size="14.00">preprocess_data</text>
</g>
<!-- preprocess_data&#45;&gt;reshape_data -->
<g id="edge15" class="edge">
<title>preprocess_data&#45;&gt;reshape_data</title>
<path fill="none" stroke="black" d="M212,-842.31C212,-834.29 212,-824.55 212,-815.57"/>
<polygon fill="black" stroke="black" points="215.5,-815.53 212,-805.53 208.5,-815.53 215.5,-815.53"/>
</g>
<!-- soil_file -->
<g id="node15" class="node">
<title>soil_file</title>
<polygon fill="#94ddf4" stroke="black" points="104,-918.5 104,-954.5 174,-954.5 174,-918.5 104,-918.5"/>
<text text-anchor="middle" x="139" y="-932.8" font-family="Times,serif" font-size="14.00">soil_file</text>
</g>
<!-- soil_file&#45;&gt;get_soil_data -->
<g id="edge19" class="edge">
<title>soil_file&#45;&gt;get_soil_data</title>
<path fill="none" stroke="black" d="M125.34,-918.29C117.12,-908.51 106.12,-896.38 95,-887 94.15,-886.28 93.28,-885.57 92.39,-884.86"/>
<polygon fill="black" stroke="black" points="94.19,-881.84 84.06,-878.72 90.03,-887.47 94.19,-881.84"/>
</g>
<!-- soil_file&#45;&gt;simulation -->
<g id="edge20" class="edge">
<title>soil_file&#45;&gt;simulation</title>
<path fill="none" stroke="black" d="M149.77,-918.48C157.76,-907.45 169.73,-893.89 184,-887 204.87,-876.92 270.58,-894.29 288,-879 318.89,-851.89 307,-829.6 307,-788.5 307,-788.5 307,-788.5 307,-348.5 307,-302.91 277.77,-256.95 256.55,-229.6"/>
<polygon fill="black" stroke="black" points="259.25,-227.37 250.27,-221.74 253.78,-231.73 259.25,-227.37"/>
</g>
<!-- soil_id -->
<g id="node16" class="node">
<title>soil_id</title>
<polygon fill="#94ddf4" stroke="black" points="24,-918.5 24,-954.5 86,-954.5 86,-918.5 24,-918.5"/>
<text text-anchor="middle" x="55" y="-932.8" font-family="Times,serif" font-size="14.00">soil_id</text>
</g>
<!-- soil_id&#45;&gt;get_soil_data -->
<g id="edge21" class="edge">
<title>soil_id&#45;&gt;get_soil_data</title>
<path fill="none" stroke="black" d="M55,-918.34C55,-909.56 55,-898.66 55,-888.77"/>
<polygon fill="black" stroke="black" points="58.5,-888.57 55,-878.57 51.5,-888.57 58.5,-888.57"/>
</g>
<!-- metadata -->
<g id="node17" class="node">
<title>metadata</title>
<polygon fill="#94ddf4" stroke="black" points="285,-918.5 285,-954.5 369,-954.5 369,-918.5 285,-918.5"/>
<text text-anchor="middle" x="327" y="-932.8" font-family="Times,serif" font-size="14.00">metadata</text>
</g>
<!-- metadata&#45;&gt;load_metadata -->
<g id="edge22" class="edge">
<title>metadata&#45;&gt;load_metadata</title>
<path fill="none" stroke="black" d="M343,-918.34C351.97,-908.72 363.31,-896.56 373.2,-885.96"/>
<polygon fill="black" stroke="black" points="375.82,-888.27 380.08,-878.57 370.7,-883.5 375.82,-888.27"/>
</g>
<!-- data_dir -->
<g id="node18" class="node">
<title>data_dir</title>
<polygon fill="#94ddf4" stroke="black" points="192.5,-918.5 192.5,-954.5 267.5,-954.5 267.5,-918.5 192.5,-918.5"/>
<text text-anchor="middle" x="230" y="-932.8" font-family="Times,serif" font-size="14.00">data_dir</text>
</g>
<!-- data_dir&#45;&gt;preprocess_data -->
<g id="edge23" class="edge">
<title>data_dir&#45;&gt;preprocess_data</title>
<path fill="none" stroke="black" d="M225.83,-918.34C223.67,-909.46 220.98,-898.43 218.56,-888.45"/>
<polygon fill="black" stroke="black" points="221.92,-887.46 216.15,-878.57 215.11,-889.11 221.92,-887.46"/>
</g>
</g>
</svg>
